<?xml version="1.0" encoding="UTF-8"?>
<svg id="Warstwa_1" xmlns="http://www.w3.org/2000/svg" version="1.1" viewBox="0 0 535.36 428.91">
  <!-- Generator: Adobe Illustrator 29.4.0, SVG Export Plug-In . SVG Version: 2.1.0 Build 152)  -->
  <defs>
    <style>
      .st0 {
        fill: #bcb7a2;
      }

      .st1 {
        fill: #dff0f0;
      }

      .st2 {
        fill: #3b4247;
      }

      .st3 {
        fill: #f49a40;
      }

      .st4 {
        fill: #fee9af;
      }
    </style>
  </defs>
  <rect class="st1" x="26.46" y="136.18" width="207.61" height="202.6"/>
  <path class="st1" d="M22.5,334.71c-2.77-2.71-2.31-4.34-2.21-8.21.31-12.22,2.4-25.66,3.31-37.98,4.13-55.57,8.43-111.2,13.3-166.63.33-3.78.56-18.65,2.47-20.71,1-1.08,3.03-1.56,4.43-1.7,12.07-1.2,25.07.53,37.13.62,46.64.35,93.3-.32,139.94-.02-2.66,7.28-6.37,14.08-9.51,21.15-7.35,16.55-14.71,33.1-23.18,49.13l-.54-.57c-5.78,16.17-19.09,33.06-24.09,49.34-1.67,5.42-1.88,8.99.87,14.12.23-.07.45-.55.5-.55.23.04,3.28,3.16,3.32,3.4,0,.05-.48.28-.53.51,10.87,5.58,26,1.75,37.84-.03,8.28-1.25,16.51-2.99,24.75-4.44l-13.29,104.29c-63.36-1.22-126.92-.29-190.36-.55l-4.13-1.16ZM64.23,145.01c-3.07,3.39-1.45,12.88,4.54,12.3,27.52-.03,55.1.3,82.54-.59,4.52-.15,16.33,1.3,19.16-1.94,2.19-2.51,2.2-8.26-.28-10.52-3.41-3.12-18.41-1.45-23.27-1.09-24.93,1.74-53.08-2.41-77.62-.05-1.56.15-3.98.7-5.07,1.9ZM100.63,221.92c11.78-.02,25.98,1.02,37.42.02,5.63-.49,8.93-3.14,7.98-9.34-.34-2.24-1.74-3.92-3.83-4.58l-81.16-.24c-4.56.73-5.94,9.36-2.91,12.26,1.51,1.45,3.82.87,5.37,1.88-.35,0-2.32-.27-1.38.57,11.82-.13,23.65.16,35.47,0,.94-.01,2.46.36,3.04-.58ZM64.61,270.67c-3.07.04-7.39-.43-10.22.03-5.63.91-7.46,13.3,1.61,14.16,7.6.72,17.37-.03,25.23-.02-.31,1.71.85,1.1,1.91,1.13,33.5,1.15,71.89,1.35,105.33,0,1.07-.04,2.22.58,1.91-1.13,5.17-.49,7.88-5.18,5.82-10.2-.47-1.14-1.32-1.82-1.94-2.83-.02-.03.6-.32.5-.47-.29-.42-2.75-1.42-3.51-1.27-41.2.41-82.42-.41-123.61.03-.94.01-2.46-.36-3.04.58Z"/>
  <g>
    <path class="st4" d="M262.82,330.14c2.29-6.39,5.26-12.87,8.17-19.1,14.13-30.35,28.44-60.69,42.09-91.28,7.41-16.61,17.22-36.04,23.32-52.73,2.67-7.31,3.92-16.83-3.62-21.71-5.14-3.32-10.42-2.14-16.04-1.25-15.03,2.39-30.05,6.71-45.1,9.19l5.51-52.35c22.32-.13,44.67.18,67,.03,54.67-.37,109.52-.9,164.26-.6,10.29.76,6.83,5.35,6.32,12.98-4.48,67.27-10.69,134.45-15.98,201.68-.53,6.79,1.95,14.09-7.45,15.15-12.66,1.43-27.43-1.52-40.22.57-59.27-1.94-120.1,2.5-179.19,0-2.97-.13-5.97-1-9.07-.58ZM381.76,142.96c-3.7.13-9.54-.08-12.8.42-4.89.75-5.65,6.66-4.05,10.59,2.17,5.33,13.14,2.63,17.77,2.57,32.71-.44,65.45.37,98.15.04,6.56-.76,7.09-12.79-2.22-13.79-32.24.68-64.63-.98-96.85.16ZM366.88,205.22c-5.65.13-13.63-.23-18.92.38-6.97.81-5.25,13.69,2.22,13.24l121.29.57c10.31.86,11.78-13.25,2.18-14.35-11.54-1.32-24.25.54-35.8.58-23.7.07-47.14-.98-70.97-.42ZM339.87,267.49c-6.11.13-14.87-.29-20.57.38-6.55.77-6.95,11.85-.57,13.27,42.08,0,84.23.15,126.23-.6,7.96-.14,18.41.94,25.94.04,8.24-.99,6.54-13.08-1.11-13.24-43.29.54-86.65-.78-129.93.16Z"/>
    <path class="st0" d="M339.87,267.49c43.28-.95,86.64.37,129.93-.16,7.66.16,9.35,12.25,1.11,13.24-7.54.91-17.98-.18-25.94-.04-42,.75-84.15.61-126.23.6-6.38-1.42-5.99-12.49.57-13.27,5.7-.67,14.46-.24,20.57-.38Z"/>
    <path class="st0" d="M366.88,205.22c23.83-.57,47.27.49,70.97.42,11.56-.04,24.26-1.9,35.8-.58,9.6,1.1,8.12,15.21-2.18,14.35l-121.29-.57c-7.46.45-9.18-12.43-2.22-13.24,5.28-.61,13.26-.24,18.92-.38Z"/>
    <path class="st0" d="M381.76,142.96c32.23-1.14,64.61.52,96.85-.16,9.31,1,8.78,13.03,2.22,13.79-32.71.33-65.45-.48-98.15-.04-4.63.06-15.6,2.75-17.77-2.57-1.6-3.93-.83-9.84,4.05-10.59,3.26-.5,9.11-.29,12.8-.42Z"/>
  </g>
  <g>
    <path class="st2" d="M279.35,86.04h235.64c.22,0,3.48,1.63,3.94,1.85,15.5,7.58,10.22,21.61,9.17,35.5-4.72,62.45-9.49,125.32-14.88,187.9-1.31,15.21.96,30.05-18.6,33.76l-238.05-.04c-6.74,15.73-14.95,30.88-21.96,46.49-3.32,7.37-8.85,26.17-14.82,30.37-6.89,4.83-15.31.79-15.43-7.66l9.4-69.17H21.11c-.75,0-5.85-2.01-6.83-2.54-6.24-3.41-9.07-8.91-8.9-15.94.34-13.97,2.79-29.4,3.87-43.51,3.8-49.45,8.15-98.81,12.13-148.23.77-9.6.13-28.21,3.39-36.28,2.69-6.65,8.68-11.28,15.61-12.5l186.24-.07c.58-.2,4.88-8.44,5.61-9.82,10.58-19.9,19.25-42.25,30.49-61.55,1.12-1.92,3.14-5.45,4.77-6.8,5.32-4.41,16.24-4.16,17.4,4.12,1.05,7.54-2.55,20.24-2.72,28.19-.05,8.86-.6,18.12-1.22,26.88-.44,6.35-1.3,12.71-1.6,19.07ZM325.65,157.12c-19.49,3.92-38.84,9-58.61,11.36-10.22-.07-9.63-9.29-9.18-17.14s2.06-15.48,2.75-23.15c2.32-25.94,4.38-51.79,7.17-77.69.52-4.83,1.56-9.67,2.04-14.5.06-.61.65-1.87-.38-1.76-2.55,6.38-5.38,12.74-8.35,18.93-27.07,56.35-55.15,112.29-84.25,167.6-.15,1.12.04.72.81.82,1.23.16,3.12.07,4.41,0,16.44-.99,35.15-7.33,51.24-7.73,4.85-.12,8.93.16,10.62,5.41,1.09,3.37.46,7.28.15,10.86-2.81,32.45-8.2,66.74-12.75,99.11-2.55,18.14-5.45,36.24-8.18,54.35l102.52-226.47ZM22.48,329.04c.45.43.5,1.26,1.48,1.54,2.29.66,6.09-.36,8.7.68,3.13.48,6.42-.59,9.37-.6,58.2-.27,116.31.44,174.46.55l13.8-103.01c-10.55,1.92-21.15,3.97-31.78,5.42-9.93,1.35-21.94,4.33-31.05-.46-.04-.23-3.08-3.27-3.31-3.31-3.35-6.35-.93-12.36,1.65-18.47,5.19-12.29,12.74-23.48,18.67-35.34,1.09-2.17,2.02-4.52,2.83-6.81,8.42-15.58,15.74-31.67,23.05-47.76,3.12-6.87,6.82-13.48,9.46-20.56-46.39-.29-92.81.36-139.2.02-12-.09-24.93-1.77-36.93-.6-1.4.14-3.42.6-4.41,1.65-1.9,2.01-2.13,16.46-2.46,20.14-4.84,53.89-9.12,107.98-13.23,162-.91,11.98-2.98,25.05-3.29,36.93-.1,3.77-.56,5.35,2.2,7.99ZM262.82,330.14c3.09-.42,6.1.45,9.07.58,59.09,2.5,119.92-1.94,179.19,0,12.79-2.09,27.56.86,40.22-.57,9.4-1.06,6.91-8.36,7.45-15.15,5.29-67.23,11.51-134.41,15.98-201.68.51-7.63,3.97-12.22-6.32-12.98-54.75-.3-109.6.23-164.26.6-22.33.15-44.67-.16-67-.03l-5.51,52.35c15.05-2.48,30.07-6.81,45.1-9.19,5.62-.89,10.9-2.07,16.04,1.25,7.55,4.88,6.29,14.4,3.62,21.71-6.1,16.69-15.91,36.12-23.32,52.73-13.64,30.59-27.95,60.93-42.09,91.28-2.9,6.24-5.88,12.71-8.17,19.1Z"/>
    <path class="st3" d="M325.65,157.12l-102.52,226.47c2.74-18.11,5.63-36.21,8.18-54.35,4.56-32.37,9.94-66.66,12.75-99.11.31-3.58.94-7.49-.15-10.86-1.69-5.25-5.77-5.54-10.62-5.41-16.09.4-34.8,6.74-51.24,7.73-1.29.08-3.18.17-4.41,0-.76-.1-.95.3-.81-.82,29.1-55.31,57.18-111.25,84.25-167.6,2.97-6.19,5.8-12.55,8.35-18.93,1.04-.11.44,1.15.38,1.76-.48,4.82-1.52,9.66-2.04,14.5-2.79,25.9-4.86,51.75-7.17,77.69-.69,7.67-2.31,15.49-2.75,23.15s-1.04,17.08,9.18,17.14c19.77-2.36,39.12-7.44,58.61-11.36Z"/>
  </g>
  <path class="st0" d="M64.38,266.78c22.97-.31,45.98.33,68.9.55,2.57.02,5.15-.03,7.72,0,.92,0,1.84,0,2.76,0h1.65c5.13.04,10.3,0,15.43,0,3.72,0,8.06.47,11.58-.55,6.99,0,14.08-.36,20.95,1.1.62.98,1.46,1.64,1.93,2.75,2.06,4.88-.64,9.44-5.79,9.92-1.06.1-2.23-.01-3.31,0-1.38.01-3.49-.43-4.41.55-28.61.22-57.38.41-85.99,0-.6-.93-2.27-.54-3.31-.55-3.85-.05-7.73,0-11.58,0-7.82,0-17.54.72-25.1.02-9.02-.84-7.2-12.88-1.6-13.77,2.82-.45,7.11,0,10.17-.03Z"/>
  <path class="st0" d="M64,144.62c1.08-1.17,3.49-1.7,5.04-1.84,24.42-2.29,52.42,1.74,77.22.05,4.83-.35,19.75-1.98,23.14,1.06,2.47,2.21,2.45,7.79.27,10.23-2.82,3.16-14.56,1.75-19.06,1.89-27.3.86-54.73.55-82.11.58-5.95.57-7.57-8.66-4.51-11.96Z"/>
  <path class="st0" d="M100.21,219.39c-12.28.02-24.66-.31-36.93,0-1.54-.98-3.84-.42-5.34-1.83-3.01-2.82-1.64-11.2,2.89-11.92l80.73.23c2.08.65,3.46,2.28,3.81,4.46.94,6.03-2.33,8.6-7.94,9.08-11.38.97-25.51-.04-37.23-.02Z"/>
  <path class="st1" d="M172.41,266.78c-3.52,1.02-7.86.55-11.58.55,3.52-1.02,7.86-.55,11.58-.55Z"/>
  <path class="st1" d="M140.99,267.33c-2.57-.03-5.15.02-7.72,0,1.85-.92,5.76-.93,7.72,0Z"/>
  <path class="st1" d="M186.19,280.55c-.91.98-3.03.54-4.41.55.92-.98,3.03-.54,4.41-.55Z"/>
  <path class="st1" d="M95.8,281.1c-1.04-.01-2.71.37-3.31-.55,1.04.01,2.71-.37,3.31.55Z"/>
  <path class="st1" d="M145.4,267.33h-1.65c.43,0,1.2,0,1.65,0Z"/>
</svg>